<mxfile host="app.diagrams.net" modified="2022-09-19T08:25:00.394Z" agent="5.0 (Macintosh; Intel Mac OS X 10_15_7) AppleWebKit/537.36 (KHTML, like Gecko) Chrome/105.0.0.0 Safari/537.36" etag="7DIPFfTEKRwi2WDobazq" version="20.2.7" type="github">
  <diagram id="70FGtR-hVwxSD_UyAeuF" name="第 1 页">
    <mxGraphModel dx="714" dy="644" grid="1" gridSize="10" guides="1" tooltips="1" connect="1" arrows="1" fold="1" page="1" pageScale="1" pageWidth="827" pageHeight="1169" math="0" shadow="0">
      <root>
        <mxCell id="0" />
        <mxCell id="1" parent="0" />
        <mxCell id="4Wl0f51mf6vvJPTHk-oO-4" style="rounded=0;orthogonalLoop=1;jettySize=auto;html=1;strokeWidth=2;" edge="1" parent="1" source="4Wl0f51mf6vvJPTHk-oO-1" target="4Wl0f51mf6vvJPTHk-oO-2">
          <mxGeometry relative="1" as="geometry" />
        </mxCell>
        <mxCell id="4Wl0f51mf6vvJPTHk-oO-5" style="edgeStyle=none;rounded=0;orthogonalLoop=1;jettySize=auto;html=1;strokeWidth=2;strokeColor=#FF0000;" edge="1" parent="1" source="4Wl0f51mf6vvJPTHk-oO-1" target="4Wl0f51mf6vvJPTHk-oO-3">
          <mxGeometry relative="1" as="geometry" />
        </mxCell>
        <mxCell id="4Wl0f51mf6vvJPTHk-oO-1" value="" style="points=[[0.13,0.02,0],[0.5,0,0],[0.87,0.02,0],[0.885,0.4,0],[0.985,0.985,0],[0.5,1,0],[0.015,0.985,0],[0.115,0.4,0]];verticalLabelPosition=bottom;sketch=0;html=1;verticalAlign=top;aspect=fixed;align=center;pointerEvents=1;shape=mxgraph.cisco19.laptop;fillColor=#005073;strokeColor=none;" vertex="1" parent="1">
          <mxGeometry x="70" y="310" width="85.71" height="60" as="geometry" />
        </mxCell>
        <mxCell id="4Wl0f51mf6vvJPTHk-oO-2" value="" style="sketch=0;outlineConnect=0;fontColor=#232F3E;gradientColor=none;fillColor=#2E27AD;strokeColor=none;dashed=0;verticalLabelPosition=bottom;verticalAlign=top;align=center;html=1;fontSize=12;fontStyle=0;aspect=fixed;pointerEvents=1;shape=mxgraph.aws4.rds_oracle_instance;" vertex="1" parent="1">
          <mxGeometry x="390" y="120" width="110" height="110" as="geometry" />
        </mxCell>
        <mxCell id="4Wl0f51mf6vvJPTHk-oO-3" value="" style="sketch=0;outlineConnect=0;fontColor=#232F3E;gradientColor=none;fillColor=#2E27AD;strokeColor=none;dashed=0;verticalLabelPosition=bottom;verticalAlign=top;align=center;html=1;fontSize=12;fontStyle=0;aspect=fixed;pointerEvents=1;shape=mxgraph.aws4.rds_oracle_instance;" vertex="1" parent="1">
          <mxGeometry x="390" y="420" width="110" height="110" as="geometry" />
        </mxCell>
        <mxCell id="4Wl0f51mf6vvJPTHk-oO-6" value="&lt;b&gt;&lt;font style=&quot;font-size: 18px;&quot;&gt;ID = 100&lt;/font&gt;&lt;/b&gt;" style="text;html=1;strokeColor=none;fillColor=none;align=center;verticalAlign=middle;whiteSpace=wrap;rounded=0;" vertex="1" parent="1">
          <mxGeometry x="400" y="240" width="90" height="30" as="geometry" />
        </mxCell>
        <mxCell id="4Wl0f51mf6vvJPTHk-oO-7" value="&lt;b&gt;&lt;font style=&quot;font-size: 18px;&quot;&gt;ID = 99&lt;/font&gt;&lt;/b&gt;" style="text;html=1;strokeColor=none;fillColor=none;align=center;verticalAlign=middle;whiteSpace=wrap;rounded=0;" vertex="1" parent="1">
          <mxGeometry x="400" y="380" width="90" height="30" as="geometry" />
        </mxCell>
      </root>
    </mxGraphModel>
  </diagram>
</mxfile>
